<svg width="400" height="400" viewBox="0 0 400 400" fill="none" xmlns="http://www.w3.org/2000/svg">
<rect width="400" height="400" rx="200" fill="#00FF38"/>
<path d="M183.881 167.414L174.079 203.997M220.306 177.174L210.503 213.757" stroke="#00FF38" stroke-width="5"/>
<path d="M227.752 221.277C222.409 241.218 201.877 253.042 181.892 247.687C161.907 242.332 150.038 221.826 155.381 201.885" stroke="#00FF38" stroke-width="5"/>
<rect x="150.706" y="124.428" width="172.246" height="18.6303" transform="rotate(70.2062 150.706 124.428)" fill="black" stroke="black" stroke-width="7"/>
<rect x="268.568" y="132.959" width="172.246" height="18.6303" transform="rotate(120 268.568 132.959)" fill="black" stroke="black" stroke-width="7"/>
<rect x="131.5" y="122.5" width="171" height="19" transform="rotate(90 131.5 122.5)" fill="black" stroke="black" stroke-width="7"/>
<rect x="282.5" y="122.5" width="171" height="19" transform="rotate(90 282.5 122.5)" fill="black" stroke="black" stroke-width="7"/>
<rect x="289.747" y="103.412" width="34.1253" height="3.97699" transform="rotate(10.5359 289.747 103.412)" fill="black" stroke="black" stroke-width="0.7"/>
<rect x="318.594" y="96.5725" width="34.374" height="3.29178" transform="rotate(130.536 318.594 96.5725)" fill="black" stroke="black"/>
<rect x="311.233" y="92.0754" width="34.1254" height="3.97699" transform="rotate(100.536 311.233 92.0754)" fill="black" stroke="black" stroke-width="0.7"/>
<rect x="289.419" y="112.739" width="34.374" height="3.29178" transform="rotate(-19.4641 289.419 112.739)" fill="black" stroke="black"/>
<rect x="301.997" y="91.8125" width="34.374" height="3.29178" transform="rotate(70.536 301.997 91.8125)" fill="black" stroke="black"/>
<rect x="294.18" y="96.1462" width="34.374" height="3.29178" transform="rotate(40.5359 294.18 96.1462)" fill="black" stroke="black"/>
</svg>
